<?xml version="1.0" encoding="utf-8"?>
<!-- Generator: Adobe Illustrator 22.0.1, SVG Export Plug-In . SVG Version: 6.00 Build 0)  -->
<svg version="1.1" id="Layer_1" xmlns="http://www.w3.org/2000/svg" xmlns:xlink="http://www.w3.org/1999/xlink" x="0px" y="0px"
	 viewBox="0 0 160.9 247.5" style="enable-background:new 0 0 160.9 247.5;" xml:space="preserve">
<style type="text/css">
	.st0{fill:#FCFCFC;}
	.st1{fill:#FEFEFE;}
	.st2{fill:#D0BDB0;}
	.st3{fill:#181614;}
	.st4{fill:#392E2A;}
</style>
<title>serval-mid</title>
<path class="st0" d="M149.7,249.4H57l1-251h91.7V249.4z"/>
<path class="st1" d="M45,249.4H5v-251h40V249.4z"/>
<path class="st1" d="M55,249.4h-9v-251h10c-0.3,17.5-0.8,34.9-0.9,52.4C55,116.9,55,183.2,55,249.4z"/>
<path class="st2" d="M149.9-1.8h7.1l0.5,251h-7.8"/>
<path class="st3" d="M4.7-1.8v251.1h-3c0.3-48.5-1.3-97-0.9-145.6c0.3-35,0.5-70.4,0.9-105.5H4.7z"/>
<path class="st4" d="M57,249.3c0-66.2-1.3-132.4-1.2-198.6c0-17.5,1-35,1.3-52.4h1.4l-0.1,251L57,249.3L57,249.3z"/>
<path class="st4" d="M47.3-1.8l-0.1,251.1h-1.6L45.8-1.8H47.3z"/>
<path class="st3" d="M157-1.8h3.3v251h-3.2"/>
</svg>
